<svg width="113" height="141" viewBox="0 0 113 141" fill="none" xmlns="http://www.w3.org/2000/svg">
<g clip-path="url(#clip0_1634_3610)">
<path d="M43.2872 2.08965L55.7649 23.7572L68.2425 2.08965C64.2267 1.03503 60.0675 0.507721 55.7649 0.507721C51.4622 0.507721 47.303 1.03503 43.2872 2.08965ZM77.8039 36.5085H102.711C100.464 28.2153 96.114 20.7851 90.2815 14.8888L77.8039 36.5085ZM8.81836 36.5085H33.7258L21.2482 14.8888C15.4157 20.7851 11.0653 28.2153 8.81836 36.5085ZM77.8039 62.011L90.2815 83.6306C96.114 77.7343 100.464 70.3041 102.711 62.011H77.8039ZM8.81836 62.011C11.0653 70.3041 15.4157 77.7343 21.2482 83.6306L33.7258 62.011H8.81836ZM43.2872 96.4298C47.303 97.4844 51.4622 98.0117 55.7649 98.0117C60.0675 98.0117 64.2267 97.4844 68.2425 96.4298L55.7649 74.7622L43.2872 96.4298Z" fill="url(#paint0_radial_1634_3610)"/>
<path fill-rule="evenodd" clip-rule="evenodd" d="M6.11758 114.911C7.2014 114.911 8.09661 115.068 8.80405 115.38C9.51148 115.694 10.1315 116.025 10.6641 116.376V118.945C10.1501 118.558 9.52524 118.195 8.79029 117.854C8.05614 117.513 7.25643 117.343 6.39278 117.343C5.84238 117.343 5.26769 117.439 4.67034 117.633C4.0738 117.826 3.57277 118.135 3.16887 118.558C2.76416 118.983 2.56262 119.526 2.56262 120.188C2.56262 120.925 2.82892 121.487 3.36232 121.874C3.89411 122.261 4.5376 122.629 5.29117 122.979L7.82627 124.14C9.09382 124.71 10.0489 125.346 10.6916 126.046C11.3351 126.747 11.6564 127.677 11.6564 128.837C11.6564 129.85 11.3618 130.739 10.7742 131.503C10.1865 132.268 9.41515 132.871 8.46004 133.314C7.50412 133.756 6.45754 133.977 5.31869 133.977C4.25268 133.977 3.26924 133.792 2.36997 133.424C1.46909 133.056 0.688812 132.642 0.0275175 132.181V129.61C0.743853 130.109 1.56541 130.555 2.49381 130.951C3.42141 131.347 4.47284 131.545 5.64893 131.545C6.56762 131.545 7.37542 131.315 8.07395 130.854C8.77167 130.394 9.12134 129.759 9.12134 128.948C9.12134 128.488 8.97888 128.091 8.69396 127.76C8.40905 127.428 8.06423 127.142 7.66034 126.903C7.25644 126.663 6.86144 126.46 6.47535 126.295L3.41737 124.913C2.09397 124.324 1.19389 123.633 0.716331 122.841C0.238774 122.049 0 121.138 0 120.105C0 119.129 0.280054 118.25 0.840172 117.467C1.40029 116.684 2.14981 116.063 3.08631 115.602C4.02362 115.141 5.03377 114.911 6.11758 114.911ZM22.3756 119.608C23.5695 119.608 24.6492 119.898 25.614 120.479C26.5781 121.059 27.3503 121.87 27.929 122.91C28.5077 123.952 28.7967 125.172 28.7967 126.571C28.7967 128.083 28.5077 129.404 27.929 130.536C27.3503 131.67 26.5603 132.55 25.559 133.176C24.5578 133.801 23.423 134.115 22.1554 134.115C21.3654 134.115 20.5617 133.903 19.7441 133.479C18.9266 133.056 18.2241 132.513 17.6364 131.849V140.333H15.3765V119.885H17.6364V122.233C18.114 121.497 18.7615 120.876 19.579 120.368C20.3965 119.862 21.329 119.608 22.3756 119.608ZM22.0178 121.819C21.1914 121.819 20.4427 122.031 19.7725 122.454C19.1007 122.879 18.5778 123.463 18.2014 124.209C17.8242 124.955 17.6364 125.826 17.6364 126.82L17.6639 129.473C18.2516 130.191 18.8667 130.776 19.5102 131.228C20.1529 131.679 20.8968 131.905 21.7426 131.905C22.7341 131.905 23.5792 131.647 24.2777 131.131C24.9754 130.615 25.5129 129.948 25.8892 129.127C26.2656 128.308 26.4542 127.455 26.4542 126.571C26.4542 125.669 26.2705 124.863 25.903 124.154C25.5355 123.445 25.0216 122.879 24.3603 122.454C23.699 122.031 22.9179 121.819 22.0178 121.819ZM38.1932 119.608C38.9832 119.608 39.787 119.798 40.6045 120.175C41.422 120.552 42.1246 121.073 42.7122 121.736V119.885H44.9721V133.701H42.7122V131.352C42.2346 132.089 41.5871 132.733 40.7696 133.286C39.9521 133.839 39.0196 134.115 37.9731 134.115C36.797 134.115 35.7221 133.815 34.7483 133.217C33.7746 132.619 32.9992 131.785 32.4204 130.716C31.8417 129.648 31.5519 128.414 31.5519 127.013C31.5519 125.486 31.8417 124.168 32.4204 123.062C32.9992 121.957 33.7932 121.105 34.8042 120.506C35.8135 119.908 36.9435 119.608 38.1932 119.608ZM38.6068 121.819C37.6145 121.819 36.7695 122.068 36.0717 122.565C35.3732 123.062 34.8358 123.702 34.4594 124.486C34.083 125.269 33.8944 126.111 33.8944 127.013C33.8944 127.898 34.0781 128.713 34.4456 129.459C34.8131 130.205 35.3319 130.798 36.0029 131.241C36.6731 131.683 37.4494 131.905 38.3308 131.905C39.1759 131.905 39.9294 131.683 40.5907 131.241C41.252 130.798 41.7757 130.187 42.1618 129.404C42.5471 128.621 42.7308 127.742 42.7122 126.765L42.6855 124.112C42.1149 123.393 41.5046 122.832 40.8522 122.427C40.2006 122.022 39.4511 121.819 38.6068 121.819ZM51.9161 119.885V122.647C52.4487 121.727 53.0914 120.989 53.845 120.437C54.5977 119.885 55.3699 119.608 56.1599 119.608C56.6933 119.608 57.1708 119.7 57.5926 119.885V122.509C57.0049 122.16 56.4165 121.984 55.8288 121.984C54.8923 121.984 54.1347 122.316 53.5552 122.979C52.9773 123.642 52.4301 124.434 51.9161 125.356V133.7H49.6562V119.885H51.9161ZM72.6664 119.885L66.2736 125.908L73.0241 133.7H70.158L64.7025 127.4L62.7461 129.224V133.7H60.4862V113.806H62.7461V126.627L69.6084 119.885H72.6664ZM75.5042 113.805H77.7641V133.7H75.5042V113.805ZM88.1263 119.608C89.5403 119.608 90.7164 119.903 91.6529 120.492C92.5902 121.082 93.2928 121.884 93.7614 122.896C94.2301 123.909 94.464 125.051 94.464 126.323V127.677H83.8825C83.9934 128.45 84.2589 129.16 84.6814 129.804C85.1039 130.449 85.6551 130.961 86.335 131.338C87.0141 131.716 87.796 131.905 88.6775 131.905C89.669 131.905 90.5966 131.651 91.4603 131.144C92.3239 130.638 93.0491 130.081 93.6376 129.473L93.6093 131.932C93.3527 132.246 92.9714 132.573 92.4664 132.913C91.9605 133.254 91.3817 133.539 90.7302 133.77C90.0778 133.999 89.3938 134.115 88.6775 134.115C87.2812 134.115 86.0412 133.784 84.9574 133.12C83.8728 132.457 83.0229 131.578 82.4085 130.482C81.7926 129.385 81.485 128.184 81.485 126.875C81.485 125.568 81.7691 124.361 82.3397 123.256C82.9087 122.151 83.6939 121.266 84.6959 120.603C85.6964 119.941 86.8401 119.608 88.1263 119.608ZM88.1263 121.819C86.9874 121.819 86.0501 122.202 85.3151 122.965C84.5802 123.73 84.1213 124.656 83.9375 125.743H92.2316C92.1402 124.84 91.8876 124.103 91.4748 123.532C91.0612 122.961 90.5602 122.533 89.9725 122.247C89.3849 121.962 88.7689 121.819 88.1263 121.819ZM104.412 119.608C105.808 119.608 107.048 119.941 108.132 120.603C109.216 121.266 110.065 122.151 110.681 123.256C111.297 124.361 111.604 125.568 111.604 126.875C111.604 128.184 111.297 129.385 110.681 130.482C110.065 131.578 109.216 132.457 108.132 133.12C107.048 133.784 105.808 134.115 104.412 134.115C103.016 134.115 101.775 133.784 100.692 133.12C99.6071 132.457 98.758 131.578 98.1428 130.482C97.5268 129.385 97.2193 128.184 97.2193 126.875C97.2193 125.568 97.5268 124.361 98.1428 123.256C98.758 122.151 99.6071 121.266 100.692 120.603C101.775 119.941 103.016 119.608 104.412 119.608ZM104.412 121.819C103.438 121.819 102.583 122.054 101.849 122.523C101.114 122.993 100.549 123.611 100.154 124.374C99.7592 125.14 99.5617 125.973 99.5617 126.875C99.5617 127.76 99.7592 128.584 100.154 129.348C100.549 130.113 101.114 130.729 101.849 131.2C102.583 131.67 103.438 131.905 104.412 131.905C105.404 131.905 106.262 131.67 106.989 131.2C107.714 130.729 108.274 130.113 108.669 129.348C109.064 128.584 109.262 127.76 109.262 126.875C109.262 125.973 109.064 125.14 108.669 124.374C108.274 123.611 107.714 122.993 106.989 122.523C106.262 122.054 105.404 121.819 104.412 121.819Z" fill="white"/>
<path fill-rule="evenodd" clip-rule="evenodd" d="M111.232 115.385C111.232 115.085 111.014 114.953 110.697 114.953C110.553 114.953 110.453 114.967 110.402 114.982V115.827H110.709C111.028 115.827 111.232 115.651 111.232 115.385ZM111.438 116.424C111.514 116.748 111.569 116.973 111.614 117.062H111.304C111.266 116.997 111.215 116.797 111.152 116.507C111.084 116.186 110.956 116.065 110.684 116.055H110.402V117.062H110.102V114.771C110.254 114.74 110.474 114.719 110.677 114.719C110.998 114.719 111.207 114.781 111.352 114.912C111.466 115.012 111.534 115.171 111.534 115.354C111.534 115.658 111.339 115.862 111.097 115.944V115.954C111.273 116.017 111.379 116.183 111.438 116.424ZM112.262 115.017C112.107 114.738 111.891 114.524 111.614 114.374C111.338 114.225 111.054 114.15 110.765 114.15C110.473 114.15 110.19 114.225 109.914 114.374C109.639 114.524 109.423 114.738 109.267 115.017C109.111 115.295 109.033 115.585 109.033 115.886C109.033 116.186 109.11 116.473 109.263 116.747C109.416 117.023 109.63 117.236 109.905 117.39C110.179 117.543 110.466 117.62 110.765 117.62C111.064 117.62 111.351 117.543 111.626 117.39C111.901 117.236 112.114 117.023 112.266 116.747C112.418 116.473 112.494 116.186 112.494 115.886C112.494 115.585 112.417 115.295 112.262 115.017ZM112.565 116.92C112.382 117.251 112.126 117.508 111.798 117.691C111.468 117.873 111.124 117.965 110.765 117.965C110.406 117.965 110.061 117.873 109.733 117.691C109.403 117.508 109.147 117.251 108.964 116.92C108.781 116.589 108.689 116.244 108.689 115.886C108.689 115.524 108.782 115.177 108.968 114.843C109.154 114.509 109.413 114.253 109.745 114.074C110.076 113.894 110.417 113.805 110.765 113.805C111.113 113.805 111.453 113.894 111.785 114.074C112.117 114.253 112.375 114.509 112.561 114.843C112.746 115.177 112.838 115.524 112.838 115.886C112.838 116.244 112.747 116.589 112.565 116.92Z" fill="white"/>
</g>
<defs>
<radialGradient id="paint0_radial_1634_3610" cx="0" cy="0" r="1" gradientUnits="userSpaceOnUse" gradientTransform="translate(55.7649 49.2593) scale(47.807 47.9371)">
<stop stop-color="#DF651D"/>
<stop offset="0.56" stop-color="#DF651D"/>
<stop offset="1" stop-color="#F7F93C"/>
</radialGradient>
<clipPath id="clip0_1634_3610">
<rect width="113" height="140" fill="white" transform="translate(0 0.486328)"/>
</clipPath>
</defs>
</svg>
